<?xml version="1.0" encoding="UTF-8"?>
<svg width="44px" height="44px" viewBox="0 0 44 44" version="1.1" xmlns="http://www.w3.org/2000/svg" xmlns:xlink="http://www.w3.org/1999/xlink">
    <title>E8549E3E-5BF0-4440-9365-E754F6D18776@1.5x</title>
    <defs>
        <filter x="-56.2%" y="-56.2%" width="212.5%" height="212.5%" filterUnits="objectBoundingBox" id="filter-1">
            <feOffset dx="0" dy="1" in="SourceAlpha" result="shadowOffsetOuter1"></feOffset>
            <feGaussianBlur stdDeviation="3" in="shadowOffsetOuter1" result="shadowBlurOuter1"></feGaussianBlur>
            <feColorMatrix values="0 0 0 0 0.760956764   0 0 0 0 0.77547176   0 0 0 0 0.855601616  0 0 0 0.6 0" type="matrix" in="shadowBlurOuter1" result="shadowMatrixOuter1"></feColorMatrix>
            <feMerge>
                <feMergeNode in="shadowMatrixOuter1"></feMergeNode>
                <feMergeNode in="SourceGraphic"></feMergeNode>
            </feMerge>
        </filter>
        <filter color-interpolation-filters="auto" id="filter-2">
            <feColorMatrix in="SourceGraphic" type="matrix" values="0 0 0 0 1.000000 0 0 0 0 1.000000 0 0 0 0 1.000000 0 0 0 1.000000 0"></feColorMatrix>
        </filter>
    </defs>
    <g id="Filter" stroke="none" stroke-width="1" fill="none" fill-rule="evenodd">
        <g id="Filter:-2-1" transform="translate(-294.000000, -762.000000)">
            <g id="Group" transform="translate(0.000000, 205.000000)">
                <g id="Buttons-/-Action-/-No-Text-Copy-16" transform="translate(304.000000, 567.000000)" filter="url(#filter-1)">
                    <g id="32">
                        <rect id="BG" fill="#1B0D3D" x="0" y="0" width="24" height="24" rx="6.4"></rect>
                        <g id="icon/social/notifications_none_24px" transform="translate(4.000000, 4.000000)" filter="url(#filter-2)">
                            <g>
                                <path d="M10.8095238,2.23424358 C12.0675072,2.23424358 13.0990897,3.19503147 13.0990897,4.396359 L13.0990897,4.396359 L13.0990897,9.58543599 C13.0990897,10.3010799 12.8087863,10.9500755 12.3345239,11.4364762 L12.3341945,12.7567692 C12.3341945,13.2896476 11.9082452,13.7159696 11.3774218,13.761694 L11.2827238,13.7657564 L10.6636762,13.7657564 C10.1216257,13.7657564 9.66556245,13.3690388 9.61656176,12.8496447 L9.61220549,12.7567692 L9.61157692,12.3232436 L7.05357692,12.3232436 L7.05446118,12.7565386 C7.05446118,13.289417 6.62851184,13.715739 6.09768849,13.7614634 L6.00299048,13.7655258 L5.38394286,13.7655258 C4.84189237,13.7655258 4.38582912,13.3688082 4.33682842,12.8494141 L4.33247216,12.7565386 L4.33117837,11.4354867 C3.85748691,10.9491955 3.56757692,10.3005947 3.56757692,9.58543599 L3.56757692,9.58543599 L3.56757692,4.396359 C3.56757692,3.19503147 4.59915943,2.23424358 5.85714286,2.23424358 L5.85714286,2.23424358 Z M5.19685747,12.0455486 L5.19731832,12.7565386 C5.19731832,12.8185122 5.25398656,12.8801449 5.3391292,12.8964894 L5.38394286,12.9006796 L6.00299048,12.9006796 C6.09684142,12.9006796 6.16691693,12.8479004 6.18502319,12.7872889 L6.18961501,12.7565386 L6.18949205,12.3109535 C5.83669362,12.2783969 5.50189616,12.1863926 5.19685747,12.0455486 Z M11.4698092,12.0455486 C11.1647705,12.1863926 10.829973,12.2783969 10.4771746,12.3109535 L10.4770517,12.7567692 C10.4770517,12.8187429 10.5337199,12.8803755 10.6188625,12.8967201 L10.6636762,12.9009103 L11.2827238,12.9009103 C11.3765747,12.9009103 11.4466503,12.848131 11.4647565,12.7875195 L11.4693483,12.7567692 Z M6.60959524,9.72957702 L5.8095381,9.72957702 L5.8095381,10.729577 L6.60959524,10.729577 L6.60959524,9.72957702 Z M10.9428667,9.72957702 L10.1428095,9.72957702 L10.1428095,10.729577 L10.9428667,10.729577 L10.9428667,9.72957702 Z M12.234,5.98133333 L4.432,5.98133333 L4.432,7.99933333 L12.234,7.99933333 L12.234,5.98133333 Z M9.57142857,3.67565386 L7.0952381,3.67565386 L7.0952381,4.67565386 L9.57142857,4.67565386 L9.57142857,3.67565386 Z" id="Combined-Shape" fill="#262A52" fill-rule="nonzero"></path>
                            </g>
                        </g>
                    </g>
                </g>
            </g>
        </g>
    </g>
</svg>