<?xml version="1.0" encoding="UTF-8"?>
<svg width="20px" height="21px" viewBox="0 0 20 21" version="1.1" xmlns="http://www.w3.org/2000/svg" xmlns:xlink="http://www.w3.org/1999/xlink">
    <title>61FF0765-39DC-44F9-9DBC-4A460D4A8B5D@2x</title>
    <defs>
        <path d="M18,0 L6,0 C4.9,0 4,0.9 4,2 L4,14 C4,15.1 4.9,16 6,16 L18,16 C19.1,16 20,15.1 20,14 L20,2 C20,0.9 19.1,0 18,0 Z M9.5,7.5 C9.5,8.33 8.83,9 8,9 L7,9 L7,11 L5.5,11 L5.5,5 L8,5 C8.83,5 9.5,5.67 9.5,6.5 L9.5,7.5 Z M14.5,9.5 C14.5,10.33 13.83,11 13,11 L10.5,11 L10.5,5 L13,5 C13.83,5 14.5,5.67 14.5,6.5 L14.5,9.5 Z M18.5,6.5 L17,6.5 L17,7.5 L18.5,7.5 L18.5,9 L17,9 L17,11 L15.5,11 L15.5,5 L18.5,5 L18.5,6.5 Z M7,7.5 L8,7.5 L8,6.5 L7,6.5 L7,7.5 Z M2,4 L0,4 L0,18 C0,19.1 0.9,20 2,20 L16,20 L16,18 L2,18 L2,4 Z M12,9.5 L13,9.5 L13,6.5 L12,6.5 L12,9.5 Z" id="path-1"></path>
    </defs>
    <g id="Car" stroke="none" stroke-width="1" fill="none" fill-rule="evenodd">
        <g id="Car:-1-4.3" transform="translate(-503.000000, -440.000000)">
            <g id="Card" transform="translate(-0.500000, 0.000000)">
                <g id="Tabs" transform="translate(0.000000, 323.590406)">
                    <g id="Equipment-Copy-4" transform="translate(16.500000, 102.000000)">
                        <g id="PDF" transform="translate(472.000000, 0.000000)">
                            <g id="icon/image/picture_as_pdf_24px-copy-5" transform="translate(15.000000, 15.000000)">
                                <mask id="mask-2" fill="white">
                                    <use xlink:href="#path-1"></use>
                                </mask>
                                <g id="icon/image/picture_as_pdf_24px" fill-rule="nonzero"></g>
                                <g id="↳-Color" mask="url(#mask-2)" fill="#2EC4B6">
                                    <g transform="translate(-2.000000, -2.000000)" id="Rectangle">
                                        <rect x="0" y="0" width="24" height="24"></rect>
                                    </g>
                                </g>
                            </g>
                        </g>
                    </g>
                </g>
            </g>
        </g>
    </g>
</svg>