<?xml version="1.0" encoding="UTF-8"?>
<svg width="38px" height="42px" viewBox="0 0 38 42" version="1.1" xmlns="http://www.w3.org/2000/svg" xmlns:xlink="http://www.w3.org/1999/xlink">
    <title>Group 4@1.5x</title>
    <defs>
        <filter x="-60.0%" y="-60.0%" width="220.0%" height="220.0%" filterUnits="objectBoundingBox" id="filter-1">
            <feOffset dx="0" dy="1" in="SourceAlpha" result="shadowOffsetOuter1"></feOffset>
            <feGaussianBlur stdDeviation="2.5" in="shadowOffsetOuter1" result="shadowBlurOuter1"></feGaussianBlur>
            <feColorMatrix values="0 0 0 0 0.760956764   0 0 0 0 0.77547176   0 0 0 0 0.855601616  0 0 0 0.6 0" type="matrix" in="shadowBlurOuter1" result="shadowMatrixOuter1"></feColorMatrix>
            <feMerge>
                <feMergeNode in="shadowMatrixOuter1"></feMergeNode>
                <feMergeNode in="SourceGraphic"></feMergeNode>
            </feMerge>
        </filter>
    </defs>
    <g id="Symbol" stroke="none" stroke-width="1" fill="none" fill-rule="evenodd">
        <g id="Group-4" transform="translate(7.000000, 9.000000)">
            <g id="Buttons-/-Action-/-No-Text-Copy-16" transform="translate(2.000000, 0.000000)" filter="url(#filter-1)">
                <g id="32">
                    <rect id="BG" fill="#2EC4B6" x="0" y="0" width="20" height="20" rx="5.33333333"></rect>
                    <g id="Group" transform="translate(3.333333, 3.333333)" fill="#FFFFFF" fill-rule="nonzero">
                        <g id="icon/social/notifications_none_24px">
                            <path d="M9.00793651,1.86186965 C10.056256,1.86186965 10.9159081,2.66252623 10.9159081,3.6636325 L10.9159081,3.6636325 L10.9159081,7.98786333 C10.9159081,8.58404239 10.6741433,9.12471684 10.2791493,9.53000768 L10.2784954,10.630641 C10.2784954,11.0747064 9.92353765,11.4299747 9.48118485,11.4680783 L9.40226984,11.4714637 L8.88639683,11.4714637 C8.43468809,11.4714637 8.05463538,11.1408657 8.01380146,10.7080372 L8.01017124,10.630641 L8.00998076,10.2698697 L5.87798076,10.2698697 L5.87871765,10.6304488 C5.87871765,11.0745142 5.52375987,11.4297825 5.08140708,11.4678862 L5.00249206,11.4712715 L4.48661905,11.4712715 C4.03491031,11.4712715 3.6548576,11.1406735 3.61402369,10.7078451 L3.61039346,10.6304488 L3.6097396,9.53000768 C3.21474555,9.12471684 2.97298076,8.58404239 2.97298076,7.98786333 L2.97298076,7.98786333 L2.97298076,3.6636325 C2.97298076,2.66252623 3.83263286,1.86186965 4.88095238,1.86186965 L4.88095238,1.86186965 Z M4.33105258,10.0381132 L4.3310986,10.6304488 C4.3310986,10.6820935 4.37832214,10.7334541 4.44927433,10.7470745 L4.48661905,10.7505664 L5.00249206,10.7505664 C5.08070118,10.7505664 5.13909745,10.7065836 5.15418599,10.6560741 L5.15801251,10.6304488 L5.15794465,10.2591311 C4.86406355,10.2320155 4.58517077,10.1553997 4.33105258,10.0381132 Z M9.55783631,10.0381132 C9.30371812,10.1553997 9.02482534,10.2320155 8.73094424,10.2591311 L8.73087638,10.630641 C8.73087638,10.6822857 8.77809991,10.7336463 8.84905211,10.7472667 L8.88639683,10.7507585 L9.40226984,10.7507585 C9.48047896,10.7507585 9.53887522,10.7067758 9.55396377,10.6562663 L9.55779029,10.630641 Z M5.50799603,8.10798085 L4.84128175,8.10798085 L4.84128175,8.97282701 L5.50799603,8.97282701 L5.50799603,8.10798085 Z M9.11905556,8.10798085 L8.45234127,8.10798085 L8.45234127,8.97282701 L9.11905556,8.97282701 L9.11905556,8.10798085 Z M10.195,4.98444444 L3.69333333,4.98444444 L3.69333333,6.66611111 L10.195,6.66611111 L10.195,4.98444444 Z M7.97619048,3.06304488 L5.91269841,3.06304488 L5.91269841,3.92789105 L7.97619048,3.92789105 L7.97619048,3.06304488 Z" id="Combined-Shape"></path>
                        </g>
                    </g>
                </g>
            </g>
            <g id="Icon-/-Badge-/-Border-/-Grey-/-14" transform="translate(0.000000, 18.000000)" fill="#C0C8D9" stroke="#FBFBFC">
                <rect id="Rectangle-Copy-6" x="0" y="0" width="24" height="14" rx="7"></rect>
            </g>
        </g>
    </g>
</svg>